G04*
G04 #@! TF.GenerationSoftware,Altium Limited,Altium Designer,22.2.1 (43)*
G04*
G04 Layer_Physical_Order=1*
G04 Layer_Color=255*
%FSLAX25Y25*%
%MOIN*%
G70*
G04*
G04 #@! TF.SameCoordinates,5D5B1899-6389-410F-A5DA-9F547DEB4AAD*
G04*
G04*
G04 #@! TF.FilePolarity,Positive*
G04*
G01*
G75*
%ADD14R,0.11417X0.21260*%
%ADD15R,0.09843X0.06693*%
%ADD16R,0.05315X0.04528*%
%ADD17R,0.04000X0.12008*%
%ADD18R,0.41299X0.32992*%
%ADD27C,0.04724*%
G04:AMPARAMS|DCode=28|XSize=157.48mil|YSize=157.48mil|CornerRadius=39.37mil|HoleSize=0mil|Usage=FLASHONLY|Rotation=0.000|XOffset=0mil|YOffset=0mil|HoleType=Round|Shape=RoundedRectangle|*
%AMROUNDEDRECTD28*
21,1,0.15748,0.07874,0,0,0.0*
21,1,0.07874,0.15748,0,0,0.0*
1,1,0.07874,0.03937,-0.03937*
1,1,0.07874,-0.03937,-0.03937*
1,1,0.07874,-0.03937,0.03937*
1,1,0.07874,0.03937,0.03937*
%
%ADD28ROUNDEDRECTD28*%
%ADD29O,0.05512X0.08268*%
%ADD30C,0.02756*%
G36*
X561981Y345154D02*
X561481Y344947D01*
X559513Y346915D01*
X559264Y347018D01*
X559215Y347566D01*
X559326Y347631D01*
X560244Y348548D01*
X560892Y349672D01*
X561228Y350926D01*
Y352224D01*
X560892Y353477D01*
X560244Y354601D01*
X559326Y355519D01*
X558202Y356168D01*
X556948Y356504D01*
X555650D01*
X554397Y356168D01*
X553273Y355519D01*
X552355Y354601D01*
X551706Y353477D01*
X551370Y352224D01*
Y350926D01*
X551706Y349672D01*
X552355Y348548D01*
X553273Y347631D01*
X553347Y347587D01*
X553218Y347104D01*
X542445D01*
X542376Y347076D01*
X542303Y347089D01*
X542155Y346984D01*
X541987Y346915D01*
X541958Y346846D01*
X541898Y346804D01*
X540004Y343822D01*
X539973Y343642D01*
X539903Y343474D01*
Y336216D01*
X538244Y334309D01*
X523622D01*
X523164Y334119D01*
X519227Y330182D01*
X519037Y329724D01*
X519037Y319166D01*
X517448Y317577D01*
X493413D01*
Y323236D01*
X493144D01*
Y330307D01*
X493413D01*
Y336032D01*
X490984D01*
X490930Y336054D01*
X490158Y336156D01*
X489385Y336054D01*
X489331Y336032D01*
X486902D01*
Y330307D01*
X487171D01*
Y323262D01*
X483870D01*
X483870Y323262D01*
X483097Y323160D01*
X482377Y322862D01*
X481758Y322387D01*
X478991Y319620D01*
X478516Y319001D01*
X478218Y318281D01*
X478116Y317508D01*
Y302430D01*
X477098Y301411D01*
X465990D01*
X465990Y301411D01*
X465217Y301310D01*
X464497Y301011D01*
X463879Y300537D01*
X463879Y300537D01*
X460089Y296747D01*
X459615Y296129D01*
X459316Y295409D01*
X459215Y294636D01*
Y281622D01*
X459316Y280849D01*
X459602Y280159D01*
Y275020D01*
X464799D01*
Y280159D01*
X465085Y280849D01*
X465187Y281622D01*
Y293399D01*
X467227Y295439D01*
X478335D01*
X479108Y295541D01*
X479828Y295839D01*
X480446Y296314D01*
X483214Y299081D01*
X483688Y299700D01*
X483987Y300420D01*
X484089Y301193D01*
X484089Y301193D01*
Y316271D01*
X485107Y317289D01*
X485996D01*
X486187Y316828D01*
X484778Y315419D01*
X484588Y314961D01*
Y312008D01*
X484778Y311550D01*
X486747Y309581D01*
X487205Y309392D01*
X500716D01*
X505258Y304850D01*
Y264764D01*
X505447Y264306D01*
X510369Y259384D01*
X510827Y259195D01*
X535433D01*
X535891Y259384D01*
X540812Y264306D01*
X541002Y264764D01*
Y320007D01*
X542197Y321203D01*
X557087D01*
X557545Y321392D01*
X561481Y325328D01*
X561981Y325121D01*
Y251012D01*
X392744D01*
Y357256D01*
X561981D01*
Y345154D01*
D02*
G37*
G36*
X561417Y344094D02*
Y326181D01*
X557087Y321850D01*
X541929D01*
X540354Y320276D01*
Y264764D01*
X535433Y259842D01*
X510827D01*
X505905Y264764D01*
Y305118D01*
X500984Y310039D01*
X487205D01*
X485236Y312008D01*
Y314961D01*
X487205Y316929D01*
X517717D01*
X519685Y318898D01*
X519685Y329724D01*
X523622Y333661D01*
X538539D01*
X540551Y335973D01*
Y343474D01*
X542445Y346457D01*
X559055D01*
X561417Y344094D01*
D02*
G37*
%LPC*%
G36*
X399074Y356504D02*
X397776D01*
X396523Y356168D01*
X395399Y355519D01*
X394481Y354601D01*
X393832Y353477D01*
X393496Y352224D01*
Y350926D01*
X393832Y349672D01*
X394481Y348548D01*
X395399Y347631D01*
X396523Y346982D01*
X397776Y346646D01*
X399074D01*
X400328Y346982D01*
X401452Y347631D01*
X402369Y348548D01*
X403018Y349672D01*
X403354Y350926D01*
Y352224D01*
X403018Y353477D01*
X402369Y354601D01*
X401452Y355519D01*
X400328Y356168D01*
X399074Y356504D01*
D02*
G37*
G36*
X420866Y348482D02*
X404134D01*
X403676Y348293D01*
X396165Y340782D01*
X396072Y340556D01*
X395976Y340331D01*
X395415Y288393D01*
X395417Y288389D01*
X395415Y288386D01*
X395509Y288160D01*
X395600Y287933D01*
X395603Y287931D01*
X395605Y287928D01*
X400920Y282613D01*
X401378Y282423D01*
X435362D01*
X435966Y281818D01*
Y276181D01*
X436156Y275723D01*
X438125Y273755D01*
X438583Y273565D01*
X443202D01*
X443409Y273065D01*
X436550Y266206D01*
X436360Y265748D01*
Y255906D01*
X436550Y255448D01*
X438321Y253676D01*
X438779Y253486D01*
X447047Y253486D01*
X447505Y253676D01*
X449474Y255644D01*
X449663Y256102D01*
Y261740D01*
X453024Y265100D01*
X499213D01*
X499671Y265290D01*
X502426Y268046D01*
X502616Y268504D01*
Y287402D01*
X502426Y287860D01*
X500458Y289828D01*
X500000Y290018D01*
X484252D01*
X483794Y289828D01*
X482219Y288253D01*
X482029Y287795D01*
Y273890D01*
X480440Y272301D01*
X454402Y272301D01*
X452616Y274087D01*
Y288189D01*
X452426Y288647D01*
X451245Y289828D01*
X450787Y290018D01*
X446850D01*
X446392Y289828D01*
X445276Y288711D01*
X443765Y290222D01*
X443307Y290411D01*
X415229D01*
X411475Y294166D01*
Y316858D01*
X424277Y329660D01*
X424467Y330118D01*
Y344882D01*
X424277Y345340D01*
X421324Y348293D01*
X420866Y348482D01*
D02*
G37*
G36*
X556948Y261622D02*
X555650D01*
X554397Y261286D01*
X553273Y260637D01*
X552355Y259719D01*
X551706Y258595D01*
X551370Y257342D01*
Y256044D01*
X551706Y254790D01*
X552355Y253666D01*
X553273Y252749D01*
X554397Y252100D01*
X555650Y251764D01*
X556948D01*
X558202Y252100D01*
X559326Y252749D01*
X560244Y253666D01*
X560892Y254790D01*
X561228Y256044D01*
Y257342D01*
X560892Y258595D01*
X560244Y259719D01*
X559326Y260637D01*
X558202Y261286D01*
X556948Y261622D01*
D02*
G37*
G36*
X399468D02*
X398170D01*
X396916Y261286D01*
X395792Y260637D01*
X394875Y259719D01*
X394226Y258595D01*
X393890Y257342D01*
Y256044D01*
X394226Y254790D01*
X394875Y253666D01*
X395792Y252749D01*
X396916Y252100D01*
X398170Y251764D01*
X399468D01*
X400722Y252100D01*
X401846Y252749D01*
X402763Y253666D01*
X403412Y254790D01*
X403748Y256044D01*
Y257342D01*
X403412Y258595D01*
X402763Y259719D01*
X401846Y260637D01*
X400722Y261286D01*
X399468Y261622D01*
D02*
G37*
%LPD*%
G36*
X423819Y344882D02*
Y330118D01*
X410827Y317126D01*
Y293898D01*
X414961Y289764D01*
X443307D01*
X444882Y288189D01*
Y275394D01*
X443701Y274213D01*
X438583D01*
X436614Y276181D01*
Y282087D01*
X435630Y283071D01*
X401378D01*
X396063Y288386D01*
X396623Y340324D01*
X404134Y347835D01*
X420866D01*
X423819Y344882D01*
D02*
G37*
G36*
X501968Y287402D02*
Y268504D01*
X499213Y265748D01*
X452756D01*
X449016Y262008D01*
Y256102D01*
X447047Y254134D01*
X438779Y254134D01*
X437008Y255906D01*
Y265748D01*
X445669Y274410D01*
Y288189D01*
X446850Y289370D01*
X450787D01*
X451968Y288189D01*
Y273819D01*
X454134Y271654D01*
X480709Y271654D01*
X482677Y273622D01*
Y287795D01*
X484252Y289370D01*
X500000D01*
X501968Y287402D01*
D02*
G37*
D14*
X492717Y277559D02*
D03*
X530905D02*
D03*
D15*
X458661Y259842D02*
D03*
X442913D02*
D03*
D16*
X490158Y313484D02*
D03*
Y320374D02*
D03*
Y333169D02*
D03*
Y340059D02*
D03*
D17*
X468902Y281622D02*
D03*
X462201D02*
D03*
X455500D02*
D03*
X448799D02*
D03*
X442114D02*
D03*
D18*
X455500Y322961D02*
D03*
D27*
X462201Y281622D02*
Y294636D01*
X465990Y298425D01*
X478335D01*
X483870Y320276D02*
X490059D01*
X481102Y301193D02*
Y317508D01*
X483870Y320276D01*
X478335Y298425D02*
X481102Y301193D01*
X490059Y320276D02*
X490158Y320374D01*
Y333169D01*
D28*
X550787Y336614D02*
D03*
X411417Y270472D02*
D03*
X550787D02*
D03*
X411417Y336614D02*
D03*
D29*
X529528Y326772D02*
D03*
X509842D02*
D03*
X418307Y305118D02*
D03*
X404528D02*
D03*
D30*
X555118Y307086D02*
D03*
X549212Y318898D02*
D03*
X543307Y307086D02*
D03*
X549212Y295275D02*
D03*
X537401Y342520D02*
D03*
X525590D02*
D03*
X513779D02*
D03*
X507874Y259842D02*
D03*
X501968Y342520D02*
D03*
X496063Y330709D02*
D03*
Y307086D02*
D03*
X501968Y295275D02*
D03*
X496063Y259842D02*
D03*
X484252Y330709D02*
D03*
X490157Y295275D02*
D03*
X484252Y259842D02*
D03*
X478346Y342520D02*
D03*
X472441Y259842D02*
D03*
X466535Y342520D02*
D03*
X454724D02*
D03*
Y295275D02*
D03*
X442913Y342520D02*
D03*
Y295275D02*
D03*
X431102Y342520D02*
D03*
Y318898D02*
D03*
X425197Y307086D02*
D03*
X431102Y295275D02*
D03*
Y271654D02*
D03*
X425197Y259842D02*
D03*
X419291Y318898D02*
D03*
X413386Y307086D02*
D03*
X419291Y295275D02*
D03*
M02*
