M48
;Layer_Color=9474304
;FILE_FORMAT=2:5
INCH,TZ
;TYPE=PLATED
T1F00S00C0.01181
T2F00S00C0.03150
T3F00S00C0.07874
T4F00S00C0.08661
%
T01
X472441Y259842
X484252
X496063
X507874
X501968Y295275
X490157
X496063Y307086
X543307
X555118
X549212Y295275
X454724
X442913
X431102
X419291
X425197Y307086
X413386
X431102Y271654
X425197Y259842
X431102Y318898
X419291
X431102Y342520
X442913
X454724
X466535
X478346
X484252Y330709
X496063
X501968Y342520
X513779
X525590
X537401
X549212Y318898
T02
X404528Y305118
X418307
X509842Y326772
X529528
T03
X550787Y270472
X411417
Y336614
X550787
T04
X556299Y256693
X398819
X398425Y351575
X556299
M30
