G04*
G04 #@! TF.GenerationSoftware,Altium Limited,Altium Designer,22.2.1 (43)*
G04*
G04 Layer_Color=32896*
%FSLAX25Y25*%
%MOIN*%
G70*
G04*
G04 #@! TF.SameCoordinates,5D5B1899-6389-410F-A5DA-9F547DEB4AAD*
G04*
G04*
G04 #@! TF.FilePolarity,Positive*
G04*
G01*
G75*
%ADD10C,0.00787*%
D10*
X484646Y275984D02*
X537795D01*
Y257480D02*
Y275984D01*
X484646Y257480D02*
X537795D01*
X484646D02*
Y275984D01*
X535819Y273697D02*
Y268974D01*
X533457D01*
X532670Y269761D01*
Y270548D01*
X533457Y271336D01*
X535819D01*
X533457D01*
X532670Y272123D01*
Y272910D01*
X533457Y273697D01*
X535819D01*
X531096Y272123D02*
Y269761D01*
X530309Y268974D01*
X527947D01*
Y272123D01*
X526373D02*
Y268974D01*
Y270548D01*
X525586Y271336D01*
X524799Y272123D01*
X524012D01*
X520863D02*
X519289D01*
X518502Y271336D01*
Y268974D01*
X520863D01*
X521650Y269761D01*
X520863Y270548D01*
X518502D01*
X516927Y268974D02*
Y273697D01*
Y270548D02*
X514566Y272123D01*
X516927Y270548D02*
X514566Y268974D01*
X504333Y273697D02*
X507482D01*
Y268974D01*
X504333D01*
X507482Y271336D02*
X505907D01*
X502759Y268974D02*
X501184D01*
X501972D01*
Y273697D01*
X502759D01*
X498823D02*
Y268974D01*
X496461D01*
X495674Y269761D01*
Y270548D01*
Y271336D01*
X496461Y272123D01*
X498823D01*
X491739Y268974D02*
X493313D01*
X494100Y269761D01*
Y271336D01*
X493313Y272123D01*
X491739D01*
X490951Y271336D01*
Y270548D01*
X494100D01*
X489377Y272123D02*
Y268974D01*
Y270548D01*
X488590Y271336D01*
X487803Y272123D01*
X487016D01*
X527554Y265353D02*
X528341Y266140D01*
X529915D01*
X530702Y265353D01*
Y262204D01*
X529915Y261417D01*
X528341D01*
X527554Y262204D01*
Y263778D01*
X529128D01*
X525192Y261417D02*
X523618D01*
X522831Y262204D01*
Y263778D01*
X523618Y264565D01*
X525192D01*
X525980Y263778D01*
Y262204D01*
X525192Y261417D01*
X521257D02*
Y264565D01*
X518895D01*
X518108Y263778D01*
Y261417D01*
X516534Y264565D02*
Y262204D01*
X515747Y261417D01*
X513385D01*
Y264565D01*
X511811Y261417D02*
X510237D01*
X511024D01*
Y266140D01*
X511811D01*
X507875D02*
Y261417D01*
X505514D01*
X504727Y262204D01*
Y262991D01*
Y263778D01*
X505514Y264565D01*
X507875D01*
X502365D02*
X500791D01*
X500004Y263778D01*
Y261417D01*
X502365D01*
X503152Y262204D01*
X502365Y262991D01*
X500004D01*
X496855Y259842D02*
X496068D01*
X495281Y260630D01*
Y264565D01*
X497642D01*
X498429Y263778D01*
Y262204D01*
X497642Y261417D01*
X495281D01*
X493707D02*
X492132D01*
X492919D01*
Y264565D01*
X493707D01*
M02*
