G04*
G04 #@! TF.GenerationSoftware,Altium Limited,Altium Designer,22.2.1 (43)*
G04*
G04 Layer_Physical_Order=2*
G04 Layer_Color=16711680*
%FSLAX25Y25*%
%MOIN*%
G70*
G04*
G04 #@! TF.SameCoordinates,5D5B1899-6389-410F-A5DA-9F547DEB4AAD*
G04*
G04*
G04 #@! TF.FilePolarity,Positive*
G04*
G01*
G75*
G04:AMPARAMS|DCode=28|XSize=157.48mil|YSize=157.48mil|CornerRadius=39.37mil|HoleSize=0mil|Usage=FLASHONLY|Rotation=0.000|XOffset=0mil|YOffset=0mil|HoleType=Round|Shape=RoundedRectangle|*
%AMROUNDEDRECTD28*
21,1,0.15748,0.07874,0,0,0.0*
21,1,0.07874,0.15748,0,0,0.0*
1,1,0.07874,0.03937,-0.03937*
1,1,0.07874,-0.03937,-0.03937*
1,1,0.07874,-0.03937,0.03937*
1,1,0.07874,0.03937,0.03937*
%
%ADD28ROUNDEDRECTD28*%
%ADD29O,0.05512X0.08268*%
%ADD30C,0.02756*%
G36*
X561981Y251012D02*
X392744D01*
Y357256D01*
X561981D01*
Y251012D01*
D02*
G37*
%LPC*%
G36*
X556948Y356504D02*
X555650D01*
X554397Y356168D01*
X553273Y355519D01*
X552355Y354601D01*
X551706Y353477D01*
X551370Y352224D01*
Y350926D01*
X551706Y349672D01*
X552355Y348548D01*
X553273Y347631D01*
X554397Y346982D01*
X555650Y346646D01*
X556948D01*
X558202Y346982D01*
X559326Y347631D01*
X560244Y348548D01*
X560892Y349672D01*
X561228Y350926D01*
Y352224D01*
X560892Y353477D01*
X560244Y354601D01*
X559326Y355519D01*
X558202Y356168D01*
X556948Y356504D01*
D02*
G37*
G36*
X399074D02*
X397776D01*
X396523Y356168D01*
X395399Y355519D01*
X394481Y354601D01*
X393832Y353477D01*
X393496Y352224D01*
Y350926D01*
X393832Y349672D01*
X394481Y348548D01*
X395399Y347631D01*
X396523Y346982D01*
X397776Y346646D01*
X399074D01*
X400328Y346982D01*
X401452Y347631D01*
X402369Y348548D01*
X403018Y349672D01*
X403354Y350926D01*
Y352224D01*
X403018Y353477D01*
X402369Y354601D01*
X401452Y355519D01*
X400328Y356168D01*
X399074Y356504D01*
D02*
G37*
G36*
X554724Y345126D02*
X546850D01*
X545666Y344970D01*
X544563Y344513D01*
X543616Y343786D01*
X542889Y342839D01*
X542432Y341735D01*
X542276Y340551D01*
Y332677D01*
X542432Y331493D01*
X542889Y330390D01*
X543616Y329443D01*
X544563Y328715D01*
X545666Y328258D01*
X546850Y328103D01*
X554724D01*
X555908Y328258D01*
X557012Y328715D01*
X557959Y329443D01*
X558686Y330390D01*
X559143Y331493D01*
X559299Y332677D01*
Y340551D01*
X559143Y341735D01*
X558686Y342839D01*
X557959Y343786D01*
X557012Y344513D01*
X555908Y344970D01*
X554724Y345126D01*
D02*
G37*
G36*
X415354D02*
X407480D01*
X406296Y344970D01*
X405193Y344513D01*
X404246Y343786D01*
X403519Y342839D01*
X403062Y341735D01*
X402906Y340551D01*
Y332677D01*
X403062Y331493D01*
X403519Y330390D01*
X404246Y329443D01*
X405193Y328715D01*
X406296Y328258D01*
X407480Y328103D01*
X415354D01*
X416538Y328258D01*
X417642Y328715D01*
X418589Y329443D01*
X419316Y330390D01*
X419773Y331493D01*
X419929Y332677D01*
Y340551D01*
X419773Y341735D01*
X419316Y342839D01*
X418589Y343786D01*
X417642Y344513D01*
X416538Y344970D01*
X415354Y345126D01*
D02*
G37*
G36*
X529528Y331533D02*
X528652Y331418D01*
X527836Y331080D01*
X527135Y330542D01*
X526597Y329841D01*
X526260Y329025D01*
X526144Y328150D01*
Y325394D01*
X526260Y324518D01*
X526597Y323702D01*
X527135Y323001D01*
X527836Y322464D01*
X528652Y322126D01*
X529528Y322010D01*
X530403Y322126D01*
X531219Y322464D01*
X531920Y323001D01*
X532457Y323702D01*
X532795Y324518D01*
X532911Y325394D01*
Y328150D01*
X532795Y329025D01*
X532457Y329841D01*
X531920Y330542D01*
X531219Y331080D01*
X530403Y331418D01*
X529528Y331533D01*
D02*
G37*
G36*
X404528Y309879D02*
X403652Y309764D01*
X402836Y309426D01*
X402135Y308888D01*
X401598Y308188D01*
X401260Y307372D01*
X401144Y306496D01*
Y303740D01*
X401260Y302865D01*
X401598Y302048D01*
X402135Y301348D01*
X402836Y300810D01*
X403652Y300472D01*
X404528Y300357D01*
X405403Y300472D01*
X406219Y300810D01*
X406920Y301348D01*
X407458Y302048D01*
X407796Y302865D01*
X407911Y303740D01*
Y306496D01*
X407796Y307372D01*
X407458Y308188D01*
X406920Y308888D01*
X406219Y309426D01*
X405403Y309764D01*
X404528Y309879D01*
D02*
G37*
G36*
X556948Y261622D02*
X555650D01*
X554397Y261286D01*
X553273Y260637D01*
X552355Y259719D01*
X551706Y258595D01*
X551370Y257342D01*
Y256044D01*
X551706Y254790D01*
X552355Y253666D01*
X553273Y252749D01*
X554397Y252100D01*
X555650Y251764D01*
X556948D01*
X558202Y252100D01*
X559326Y252749D01*
X560244Y253666D01*
X560892Y254790D01*
X561228Y256044D01*
Y257342D01*
X560892Y258595D01*
X560244Y259719D01*
X559326Y260637D01*
X558202Y261286D01*
X556948Y261622D01*
D02*
G37*
G36*
X399468D02*
X398170D01*
X396916Y261286D01*
X395792Y260637D01*
X394875Y259719D01*
X394226Y258595D01*
X393890Y257342D01*
Y256044D01*
X394226Y254790D01*
X394875Y253666D01*
X395792Y252749D01*
X396916Y252100D01*
X398170Y251764D01*
X399468D01*
X400722Y252100D01*
X401846Y252749D01*
X402763Y253666D01*
X403412Y254790D01*
X403748Y256044D01*
Y257342D01*
X403412Y258595D01*
X402763Y259719D01*
X401846Y260637D01*
X400722Y261286D01*
X399468Y261622D01*
D02*
G37*
%LPD*%
D28*
X550787Y336614D02*
D03*
X411417Y270472D02*
D03*
X550787D02*
D03*
X411417Y336614D02*
D03*
D29*
X529528Y326772D02*
D03*
X509842D02*
D03*
X418307Y305118D02*
D03*
X404528D02*
D03*
D30*
X555118Y307086D02*
D03*
X549212Y318898D02*
D03*
X543307Y307086D02*
D03*
X549212Y295275D02*
D03*
X537401Y342520D02*
D03*
X525590D02*
D03*
X513779D02*
D03*
X507874Y259842D02*
D03*
X501968Y342520D02*
D03*
X496063Y330709D02*
D03*
Y307086D02*
D03*
X501968Y295275D02*
D03*
X496063Y259842D02*
D03*
X484252Y330709D02*
D03*
X490157Y295275D02*
D03*
X484252Y259842D02*
D03*
X478346Y342520D02*
D03*
X472441Y259842D02*
D03*
X466535Y342520D02*
D03*
X454724D02*
D03*
Y295275D02*
D03*
X442913Y342520D02*
D03*
Y295275D02*
D03*
X431102Y342520D02*
D03*
Y318898D02*
D03*
X425197Y307086D02*
D03*
X431102Y295275D02*
D03*
Y271654D02*
D03*
X425197Y259842D02*
D03*
X419291Y318898D02*
D03*
X413386Y307086D02*
D03*
X419291Y295275D02*
D03*
M02*
