G04*
G04 #@! TF.GenerationSoftware,Altium Limited,Altium Designer,22.2.1 (43)*
G04*
G04 Layer_Color=128*
%FSLAX25Y25*%
%MOIN*%
G70*
G04*
G04 #@! TF.SameCoordinates,5D5B1899-6389-410F-A5DA-9F547DEB4AAD*
G04*
G04*
G04 #@! TF.FilePolarity,Positive*
G04*
G01*
G75*
%ADD34C,0.00200*%
D34*
X551968Y351575D02*
X560630D01*
X556299Y347244D02*
Y355906D01*
X551968Y256693D02*
X560630D01*
X556299Y252362D02*
Y261024D01*
X546850Y336614D02*
X554724D01*
X550787Y332677D02*
Y340551D01*
X394488Y256693D02*
X403150D01*
X398819Y252362D02*
Y261024D01*
X394094Y351575D02*
X402756D01*
X398425Y347244D02*
Y355906D01*
X527953Y326772D02*
X531102D01*
X529528Y325197D02*
Y328346D01*
X508268Y326772D02*
X511417D01*
X509842Y325197D02*
Y328346D01*
X416732Y305118D02*
X419882D01*
X418307Y303543D02*
Y306693D01*
X402953Y305118D02*
X406102D01*
X404528Y303543D02*
Y306693D01*
X407480Y270472D02*
X415354D01*
X411417Y266535D02*
Y274410D01*
X546850Y270472D02*
X554724D01*
X550787Y266535D02*
Y274410D01*
X407480Y336614D02*
X415354D01*
X411417Y332677D02*
Y340551D01*
X554527Y307086D02*
X555709D01*
X555118Y306496D02*
Y307677D01*
X548622Y318898D02*
X549803D01*
X549212Y318307D02*
Y319488D01*
X542716Y307086D02*
X543897D01*
X543307Y306496D02*
Y307677D01*
X548622Y295275D02*
X549803D01*
X549212Y294685D02*
Y295866D01*
X536811Y342520D02*
X537992D01*
X537401Y341929D02*
Y343110D01*
X525000Y342520D02*
X526181D01*
X525590Y341929D02*
Y343110D01*
X513189Y342520D02*
X514370D01*
X513779Y341929D02*
Y343110D01*
X507283Y259842D02*
X508464D01*
X507874Y259252D02*
Y260433D01*
X501378Y342520D02*
X502559D01*
X501968Y341929D02*
Y343110D01*
X495472Y330709D02*
X496653D01*
X496063Y330118D02*
Y331299D01*
X495472Y307086D02*
X496653D01*
X496063Y306496D02*
Y307677D01*
X501378Y295275D02*
X502559D01*
X501968Y294685D02*
Y295866D01*
X495472Y259842D02*
X496653D01*
X496063Y259252D02*
Y260433D01*
X483661Y330709D02*
X484842D01*
X484252Y330118D02*
Y331299D01*
X489567Y295275D02*
X490748D01*
X490157Y294685D02*
Y295866D01*
X483661Y259842D02*
X484842D01*
X484252Y259252D02*
Y260433D01*
X477756Y342520D02*
X478937D01*
X478346Y341929D02*
Y343110D01*
X471850Y259842D02*
X473031D01*
X472441Y259252D02*
Y260433D01*
X465945Y342520D02*
X467126D01*
X466535Y341929D02*
Y343110D01*
X454134Y342520D02*
X455315D01*
X454724Y341929D02*
Y343110D01*
X454134Y295275D02*
X455315D01*
X454724Y294685D02*
Y295866D01*
X442323Y342520D02*
X443504D01*
X442913Y341929D02*
Y343110D01*
X442323Y295275D02*
X443504D01*
X442913Y294685D02*
Y295866D01*
X430512Y342520D02*
X431693D01*
X431102Y341929D02*
Y343110D01*
X430512Y318898D02*
X431693D01*
X431102Y318307D02*
Y319488D01*
X424606Y307086D02*
X425787D01*
X425197Y306496D02*
Y307677D01*
X430512Y295275D02*
X431693D01*
X431102Y294685D02*
Y295866D01*
X430512Y271654D02*
X431693D01*
X431102Y271063D02*
Y272244D01*
X424606Y259842D02*
X425787D01*
X425197Y259252D02*
Y260433D01*
X418701Y318898D02*
X419882D01*
X419291Y318307D02*
Y319488D01*
X412795Y307086D02*
X413976D01*
X413386Y306496D02*
Y307677D01*
X418701Y295275D02*
X419882D01*
X419291Y294685D02*
Y295866D01*
M02*
