G04*
G04 #@! TF.GenerationSoftware,Altium Limited,Altium Designer,22.2.1 (43)*
G04*
G04 Layer_Color=8388736*
%FSLAX25Y25*%
%MOIN*%
G70*
G04*
G04 #@! TF.SameCoordinates,5D5B1899-6389-410F-A5DA-9F547DEB4AAD*
G04*
G04*
G04 #@! TF.FilePolarity,Negative*
G04*
G01*
G75*
%ADD19R,0.12217X0.22060*%
%ADD20R,0.10642X0.07493*%
%ADD21R,0.06115X0.05328*%
%ADD22R,0.04800X0.12808*%
%ADD23R,0.42099X0.33792*%
G04:AMPARAMS|DCode=24|XSize=8mil|YSize=8mil|CornerRadius=0mil|HoleSize=0mil|Usage=FLASHONLY|Rotation=0.000|XOffset=0mil|YOffset=0mil|HoleType=Round|Shape=RoundedRectangle|*
%AMROUNDEDRECTD24*
21,1,0.00800,0.00800,0,0,0.0*
21,1,0.00800,0.00800,0,0,0.0*
1,1,0.00000,0.00400,-0.00400*
1,1,0.00000,-0.00400,-0.00400*
1,1,0.00000,-0.00400,0.00400*
1,1,0.00000,0.00400,0.00400*
%
%ADD24ROUNDEDRECTD24*%
G04:AMPARAMS|DCode=25|XSize=165.48mil|YSize=165.48mil|CornerRadius=43.37mil|HoleSize=0mil|Usage=FLASHONLY|Rotation=0.000|XOffset=0mil|YOffset=0mil|HoleType=Round|Shape=RoundedRectangle|*
%AMROUNDEDRECTD25*
21,1,0.16548,0.07874,0,0,0.0*
21,1,0.07874,0.16548,0,0,0.0*
1,1,0.08674,0.03937,-0.03937*
1,1,0.08674,-0.03937,-0.03937*
1,1,0.08674,-0.03937,0.03937*
1,1,0.08674,0.03937,0.03937*
%
%ADD25ROUNDEDRECTD25*%
%ADD26O,0.06312X0.09068*%
D19*
X492717Y277559D02*
D03*
X530905D02*
D03*
D20*
X458661Y259842D02*
D03*
X442913D02*
D03*
D21*
X490158Y313484D02*
D03*
Y320374D02*
D03*
Y333169D02*
D03*
Y340059D02*
D03*
D22*
X468902Y281622D02*
D03*
X462201D02*
D03*
X455500D02*
D03*
X448799D02*
D03*
X442114D02*
D03*
D23*
X455500Y322961D02*
D03*
D24*
X556299Y351575D02*
D03*
Y256693D02*
D03*
X398819D02*
D03*
X398425Y351575D02*
D03*
D25*
X550787Y336614D02*
D03*
X411417Y270472D02*
D03*
X550787D02*
D03*
X411417Y336614D02*
D03*
D26*
X529528Y326772D02*
D03*
X509842D02*
D03*
X418307Y305118D02*
D03*
X404528D02*
D03*
M02*
